<svg xmlns="http://www.w3.org/2000/svg" xmlns:xlink="http://www.w3.org/1999/xlink" width="500" zoomAndPan="magnify" viewBox="0 0 375 374.999991" height="500" preserveAspectRatio="xMidYMid meet" version="1.0"><defs><g/><clipPath id="id1"><path d="M 142.621094 188.445312 L 187.621094 188.445312 L 187.621094 233.445312 L 142.621094 233.445312 Z M 142.621094 188.445312 " clip-rule="nonzero"/></clipPath></defs><g fill="#ff7821" fill-opacity="1"><g transform="translate(68.859082, 183.967313)"><g><path d="M 27.59375 -14.46875 C 26.632812 -13.988281 25.519531 -13.523438 24.25 -13.078125 C 22.988281 -12.628906 21.65625 -12.222656 20.25 -11.859375 C 18.851562 -11.503906 17.398438 -11.195312 15.890625 -10.9375 C 14.390625 -10.6875 12.921875 -10.492188 11.484375 -10.359375 C 11.617188 -8.921875 11.742188 -7.566406 11.859375 -6.296875 C 11.984375 -5.035156 12.132812 -3.804688 12.3125 -2.609375 C 12.414062 -1.753906 12.113281 -1.050781 11.40625 -0.5 C 10.707031 0.0390625 9.894531 0.367188 8.96875 0.484375 C 8.050781 0.609375 7.171875 0.488281 6.328125 0.125 C 5.492188 -0.226562 5.023438 -0.851562 4.921875 -1.75 C 4.679688 -3.59375 4.46875 -5.582031 4.28125 -7.71875 C 4.09375 -9.851562 3.929688 -12.03125 3.796875 -14.25 C 3.660156 -16.476562 3.554688 -18.71875 3.484375 -20.96875 C 3.421875 -23.226562 3.390625 -25.398438 3.390625 -27.484375 C 2.535156 -27.484375 1.832031 -27.78125 1.28125 -28.375 C 0.738281 -28.976562 0.394531 -29.664062 0.25 -30.4375 C 0.113281 -31.207031 0.195312 -31.953125 0.5 -32.671875 C 0.8125 -33.390625 1.414062 -33.867188 2.3125 -34.109375 C 3.84375 -34.546875 5.523438 -34.925781 7.359375 -35.25 C 9.191406 -35.582031 11.097656 -35.832031 13.078125 -36 C 15.054688 -36.164062 17.070312 -36.25 19.125 -36.25 C 21.207031 -36.25 23.273438 -36.113281 25.328125 -35.84375 C 27.316406 -35.601562 29.019531 -35.035156 30.4375 -34.140625 C 31.851562 -33.253906 32.960938 -32.179688 33.765625 -30.921875 C 34.566406 -29.660156 35.050781 -28.269531 35.21875 -26.75 C 35.394531 -25.226562 35.234375 -23.710938 34.734375 -22.203125 C 34.242188 -20.703125 33.410156 -19.273438 32.234375 -17.921875 C 31.054688 -16.566406 29.507812 -15.414062 27.59375 -14.46875 Z M 24.25 -20.515625 C 25.445312 -21.191406 26.316406 -22 26.859375 -22.9375 C 27.410156 -23.882812 27.617188 -24.816406 27.484375 -25.734375 C 27.347656 -26.660156 26.882812 -27.484375 26.09375 -28.203125 C 25.3125 -28.921875 24.171875 -29.382812 22.671875 -29.59375 C 21.203125 -29.789062 19.414062 -29.828125 17.3125 -29.703125 C 15.207031 -29.585938 13.023438 -29.363281 10.765625 -29.03125 C 10.703125 -27.175781 10.695312 -25.257812 10.75 -23.28125 C 10.800781 -21.300781 10.894531 -19.21875 11.03125 -17.03125 C 13.59375 -17.226562 16.023438 -17.625 18.328125 -18.21875 C 20.640625 -18.820312 22.613281 -19.585938 24.25 -20.515625 Z M 24.25 -20.515625 "/></g></g></g><g fill="#ff7821" fill-opacity="1"><g transform="translate(104.653452, 183.967313)"><g><path d="M 36.515625 -5.640625 C 37.160156 -5.398438 37.578125 -4.90625 37.765625 -4.15625 C 37.953125 -3.40625 37.925781 -2.660156 37.6875 -1.921875 C 37.445312 -1.191406 36.992188 -0.585938 36.328125 -0.109375 C 35.660156 0.367188 34.78125 0.441406 33.6875 0.109375 C 31.84375 -0.472656 30.441406 -1.367188 29.484375 -2.578125 C 28.523438 -3.796875 27.945312 -5.398438 27.75 -7.390625 C 26.070312 -4.722656 24.085938 -2.769531 21.796875 -1.53125 C 19.503906 -0.300781 16.835938 0.429688 13.796875 0.671875 C 11.910156 0.804688 10.234375 0.632812 8.765625 0.15625 C 7.296875 -0.320312 6.054688 -1.054688 5.046875 -2.046875 C 4.035156 -3.035156 3.28125 -4.253906 2.78125 -5.703125 C 2.289062 -7.160156 2.082031 -8.816406 2.15625 -10.671875 C 2.21875 -12.679688 2.6875 -14.648438 3.5625 -16.578125 C 4.4375 -18.515625 5.625 -20.234375 7.125 -21.734375 C 8.632812 -23.242188 10.429688 -24.457031 12.515625 -25.375 C 14.597656 -26.300781 16.890625 -26.765625 19.390625 -26.765625 C 20.785156 -26.765625 21.992188 -26.671875 23.015625 -26.484375 C 24.046875 -26.296875 24.90625 -26.03125 25.59375 -25.6875 C 26.445312 -25.25 26.945312 -24.648438 27.09375 -23.890625 C 27.25 -23.140625 27.195312 -22.421875 26.9375 -21.734375 C 26.6875 -21.054688 26.285156 -20.519531 25.734375 -20.125 C 25.191406 -19.726562 24.648438 -19.648438 24.109375 -19.890625 C 22.804688 -20.472656 21.351562 -20.765625 19.75 -20.765625 C 18.375 -20.765625 17.0625 -20.507812 15.8125 -20 C 14.570312 -19.488281 13.472656 -18.785156 12.515625 -17.890625 C 11.554688 -17.003906 10.785156 -15.972656 10.203125 -14.796875 C 9.617188 -13.617188 9.296875 -12.34375 9.234375 -10.96875 C 9.160156 -9.125 9.5625 -7.765625 10.4375 -6.890625 C 11.3125 -6.023438 12.601562 -5.675781 14.3125 -5.84375 C 15.195312 -5.914062 16.148438 -6.128906 17.171875 -6.484375 C 18.203125 -6.847656 19.226562 -7.394531 20.25 -8.125 C 21.28125 -8.863281 22.289062 -9.8125 23.28125 -10.96875 C 24.269531 -12.132812 25.175781 -13.570312 26 -15.28125 C 26.132812 -15.550781 26.296875 -15.941406 26.484375 -16.453125 C 26.671875 -16.972656 26.867188 -17.539062 27.078125 -18.15625 C 27.285156 -18.769531 27.472656 -19.390625 27.640625 -20.015625 C 27.804688 -20.648438 27.941406 -21.226562 28.046875 -21.75 C 28.179688 -22.425781 28.460938 -22.941406 28.890625 -23.296875 C 29.316406 -23.660156 29.800781 -23.894531 30.34375 -24 C 30.894531 -24.101562 31.460938 -24.09375 32.046875 -23.96875 C 32.628906 -23.851562 33.140625 -23.625 33.578125 -23.28125 C 34.023438 -22.9375 34.359375 -22.515625 34.578125 -22.015625 C 34.804688 -21.523438 34.816406 -20.957031 34.609375 -20.3125 C 33.929688 -17.976562 33.453125 -15.96875 33.171875 -14.28125 C 32.898438 -12.59375 32.847656 -11.164062 33.015625 -10 C 33.191406 -8.832031 33.570312 -7.898438 34.15625 -7.203125 C 34.738281 -6.503906 35.523438 -5.984375 36.515625 -5.640625 Z M 36.515625 -5.640625 "/></g></g></g><g fill="#ff7821" fill-opacity="1"><g transform="translate(142.601634, 183.967313)"><g><path d="M 21.328125 -26.609375 C 22.179688 -26.515625 22.804688 -26.140625 23.203125 -25.484375 C 23.597656 -24.835938 23.769531 -24.15625 23.71875 -23.4375 C 23.664062 -22.71875 23.40625 -22.078125 22.9375 -21.515625 C 22.476562 -20.953125 21.84375 -20.703125 21.03125 -20.765625 C 18.695312 -20.972656 16.582031 -21.015625 14.6875 -20.890625 C 12.789062 -20.773438 11.265625 -20.425781 10.109375 -19.84375 C 9.628906 -19.601562 9.410156 -19.273438 9.453125 -18.859375 C 9.503906 -18.453125 9.859375 -18.21875 10.515625 -18.15625 C 11.234375 -18.050781 12.023438 -17.894531 12.890625 -17.6875 C 13.765625 -17.488281 14.671875 -17.222656 15.609375 -16.890625 C 16.554688 -16.566406 17.503906 -16.195312 18.453125 -15.78125 C 19.410156 -15.375 20.316406 -14.914062 21.171875 -14.40625 C 22.710938 -13.550781 23.84375 -12.445312 24.5625 -11.09375 C 25.28125 -9.75 25.617188 -8.410156 25.578125 -7.078125 C 25.546875 -5.742188 25.132812 -4.507812 24.34375 -3.375 C 23.5625 -2.25 22.40625 -1.445312 20.875 -0.96875 C 18.269531 -0.1875 15.675781 0.257812 13.09375 0.375 C 10.519531 0.5 7.953125 0.441406 5.390625 0.203125 C 4.535156 0.140625 3.910156 -0.238281 3.515625 -0.9375 C 3.117188 -1.644531 2.960938 -2.390625 3.046875 -3.171875 C 3.128906 -3.960938 3.421875 -4.65625 3.921875 -5.25 C 4.421875 -5.851562 5.097656 -6.101562 5.953125 -6 C 10.804688 -5.414062 14.359375 -5.484375 16.609375 -6.203125 C 17.671875 -6.578125 18.242188 -7.109375 18.328125 -7.796875 C 18.421875 -8.484375 17.96875 -9.132812 16.96875 -9.75 C 16.425781 -10.082031 15.769531 -10.425781 15 -10.78125 C 14.226562 -11.144531 13.414062 -11.488281 12.5625 -11.8125 C 11.707031 -12.144531 10.832031 -12.445312 9.9375 -12.71875 C 9.050781 -12.988281 8.21875 -13.210938 7.4375 -13.390625 C 5.894531 -13.722656 4.671875 -14.367188 3.765625 -15.328125 C 2.859375 -16.285156 2.335938 -17.351562 2.203125 -18.53125 C 2.066406 -19.71875 2.347656 -20.882812 3.046875 -22.03125 C 3.753906 -23.175781 4.925781 -24.101562 6.5625 -24.8125 C 7.59375 -25.257812 8.722656 -25.628906 9.953125 -25.921875 C 11.179688 -26.210938 12.441406 -26.425781 13.734375 -26.5625 C 15.035156 -26.695312 16.335938 -26.769531 17.640625 -26.78125 C 18.941406 -26.800781 20.171875 -26.742188 21.328125 -26.609375 Z M 21.328125 -26.609375 "/></g></g></g><g fill="#ff7821" fill-opacity="1"><g transform="translate(170.396116, 183.967313)"><g><path d="M 21.328125 -26.609375 C 22.179688 -26.515625 22.804688 -26.140625 23.203125 -25.484375 C 23.597656 -24.835938 23.769531 -24.15625 23.71875 -23.4375 C 23.664062 -22.71875 23.40625 -22.078125 22.9375 -21.515625 C 22.476562 -20.953125 21.84375 -20.703125 21.03125 -20.765625 C 18.695312 -20.972656 16.582031 -21.015625 14.6875 -20.890625 C 12.789062 -20.773438 11.265625 -20.425781 10.109375 -19.84375 C 9.628906 -19.601562 9.410156 -19.273438 9.453125 -18.859375 C 9.503906 -18.453125 9.859375 -18.21875 10.515625 -18.15625 C 11.234375 -18.050781 12.023438 -17.894531 12.890625 -17.6875 C 13.765625 -17.488281 14.671875 -17.222656 15.609375 -16.890625 C 16.554688 -16.566406 17.503906 -16.195312 18.453125 -15.78125 C 19.410156 -15.375 20.316406 -14.914062 21.171875 -14.40625 C 22.710938 -13.550781 23.84375 -12.445312 24.5625 -11.09375 C 25.28125 -9.75 25.617188 -8.410156 25.578125 -7.078125 C 25.546875 -5.742188 25.132812 -4.507812 24.34375 -3.375 C 23.5625 -2.25 22.40625 -1.445312 20.875 -0.96875 C 18.269531 -0.1875 15.675781 0.257812 13.09375 0.375 C 10.519531 0.5 7.953125 0.441406 5.390625 0.203125 C 4.535156 0.140625 3.910156 -0.238281 3.515625 -0.9375 C 3.117188 -1.644531 2.960938 -2.390625 3.046875 -3.171875 C 3.128906 -3.960938 3.421875 -4.65625 3.921875 -5.25 C 4.421875 -5.851562 5.097656 -6.101562 5.953125 -6 C 10.804688 -5.414062 14.359375 -5.484375 16.609375 -6.203125 C 17.671875 -6.578125 18.242188 -7.109375 18.328125 -7.796875 C 18.421875 -8.484375 17.96875 -9.132812 16.96875 -9.75 C 16.425781 -10.082031 15.769531 -10.425781 15 -10.78125 C 14.226562 -11.144531 13.414062 -11.488281 12.5625 -11.8125 C 11.707031 -12.144531 10.832031 -12.445312 9.9375 -12.71875 C 9.050781 -12.988281 8.21875 -13.210938 7.4375 -13.390625 C 5.894531 -13.722656 4.671875 -14.367188 3.765625 -15.328125 C 2.859375 -16.285156 2.335938 -17.351562 2.203125 -18.53125 C 2.066406 -19.71875 2.347656 -20.882812 3.046875 -22.03125 C 3.753906 -23.175781 4.925781 -24.101562 6.5625 -24.8125 C 7.59375 -25.257812 8.722656 -25.628906 9.953125 -25.921875 C 11.179688 -26.210938 12.441406 -26.425781 13.734375 -26.5625 C 15.035156 -26.695312 16.335938 -26.769531 17.640625 -26.78125 C 18.941406 -26.800781 20.171875 -26.742188 21.328125 -26.609375 Z M 21.328125 -26.609375 "/></g></g></g><g fill="#ff7821" fill-opacity="1"><g transform="translate(198.190597, 183.967313)"><g><path d="M 12.71875 -32.765625 C 12.71875 -31.566406 12.304688 -30.554688 11.484375 -29.734375 C 10.660156 -28.921875 9.65625 -28.515625 8.46875 -28.515625 C 7.269531 -28.515625 6.257812 -28.921875 5.4375 -29.734375 C 4.613281 -30.554688 4.203125 -31.566406 4.203125 -32.765625 C 4.203125 -33.960938 4.613281 -34.972656 5.4375 -35.796875 C 6.257812 -36.617188 7.269531 -37.03125 8.46875 -37.03125 C 9.65625 -37.03125 10.660156 -36.617188 11.484375 -35.796875 C 12.304688 -34.972656 12.71875 -33.960938 12.71875 -32.765625 Z M 11.078125 -22 C 10.671875 -19.125 10.441406 -16.007812 10.390625 -12.65625 C 10.335938 -9.3125 10.429688 -5.984375 10.671875 -2.671875 C 10.703125 -2.054688 10.554688 -1.523438 10.234375 -1.078125 C 9.910156 -0.628906 9.488281 -0.285156 8.96875 -0.046875 C 8.457031 0.191406 7.894531 0.328125 7.28125 0.359375 C 6.664062 0.390625 6.082031 0.316406 5.53125 0.140625 C 4.988281 -0.0234375 4.519531 -0.296875 4.125 -0.671875 C 3.726562 -1.046875 3.515625 -1.539062 3.484375 -2.15625 C 3.210938 -6.082031 3.101562 -9.703125 3.15625 -13.015625 C 3.207031 -16.335938 3.421875 -19.503906 3.796875 -22.515625 C 3.859375 -23.128906 4.09375 -23.628906 4.5 -24.015625 C 4.914062 -24.410156 5.414062 -24.691406 6 -24.859375 C 6.582031 -25.035156 7.1875 -25.085938 7.8125 -25.015625 C 8.445312 -24.953125 9.019531 -24.800781 9.53125 -24.5625 C 10.050781 -24.320312 10.460938 -23.988281 10.765625 -23.5625 C 11.078125 -23.132812 11.179688 -22.613281 11.078125 -22 Z M 11.078125 -22 "/></g></g></g><g fill="#ff7821" fill-opacity="1"><g transform="translate(212.908339, 183.967313)"><g><path d="M 34.109375 -13.234375 C 34.109375 -11.859375 34.046875 -10.171875 33.921875 -8.171875 C 33.804688 -6.171875 33.578125 -4.195312 33.234375 -2.25 C 33.054688 -1.300781 32.566406 -0.617188 31.765625 -0.203125 C 30.960938 0.203125 30.113281 0.363281 29.21875 0.28125 C 28.332031 0.195312 27.554688 -0.0859375 26.890625 -0.578125 C 26.222656 -1.078125 25.960938 -1.753906 26.109375 -2.609375 C 26.242188 -3.503906 26.359375 -4.4375 26.453125 -5.40625 C 26.554688 -6.382812 26.640625 -7.34375 26.703125 -8.28125 C 26.773438 -9.21875 26.828125 -10.097656 26.859375 -10.921875 C 26.898438 -11.742188 26.921875 -12.445312 26.921875 -13.03125 C 26.921875 -14.425781 26.832031 -15.550781 26.65625 -16.40625 C 26.488281 -17.257812 26.242188 -17.929688 25.921875 -18.421875 C 25.597656 -18.921875 25.175781 -19.253906 24.65625 -19.421875 C 24.144531 -19.597656 23.550781 -19.6875 22.875 -19.6875 C 21.601562 -19.6875 20.3125 -19.367188 19 -18.734375 C 17.6875 -18.109375 16.460938 -17.28125 15.328125 -16.25 C 14.203125 -15.226562 13.226562 -14.078125 12.40625 -12.796875 C 11.582031 -11.515625 11.019531 -10.222656 10.71875 -8.921875 C 10.507812 -8.066406 10.363281 -7.09375 10.28125 -6 C 10.195312 -4.90625 10.222656 -3.847656 10.359375 -2.828125 C 10.460938 -1.898438 10.179688 -1.171875 9.515625 -0.640625 C 8.847656 -0.109375 8.066406 0.1875 7.171875 0.25 C 6.285156 0.320312 5.457031 0.171875 4.6875 -0.203125 C 3.914062 -0.578125 3.484375 -1.226562 3.390625 -2.15625 C 3.078125 -5.40625 2.859375 -8.804688 2.734375 -12.359375 C 2.617188 -15.910156 2.695312 -19.535156 2.96875 -23.234375 C 3.007812 -23.816406 3.222656 -24.296875 3.609375 -24.671875 C 4.003906 -25.046875 4.484375 -25.316406 5.046875 -25.484375 C 5.609375 -25.660156 6.207031 -25.726562 6.84375 -25.6875 C 7.476562 -25.65625 8.050781 -25.519531 8.5625 -25.28125 C 9.070312 -25.039062 9.488281 -24.707031 9.8125 -24.28125 C 10.144531 -23.851562 10.257812 -23.316406 10.15625 -22.671875 C 10.082031 -22.085938 10.003906 -21.46875 9.921875 -20.8125 C 9.835938 -20.164062 9.757812 -19.28125 9.6875 -18.15625 C 11.976562 -21.195312 14.3125 -23.390625 16.6875 -24.734375 C 19.0625 -26.085938 21.632812 -26.765625 24.40625 -26.765625 C 26.21875 -26.765625 27.738281 -26.460938 28.96875 -25.859375 C 30.195312 -25.265625 31.1875 -24.394531 31.9375 -23.25 C 32.695312 -22.101562 33.25 -20.6875 33.59375 -19 C 33.9375 -17.3125 34.109375 -15.390625 34.109375 -13.234375 Z M 34.109375 -13.234375 "/></g></g></g><g fill="#ff7821" fill-opacity="1"><g transform="translate(249.728329, 183.967313)"><g><path d="M 30.921875 -1.53125 C 30.515625 -0.0625 29.832031 1.164062 28.875 2.15625 C 27.914062 3.144531 26.773438 3.945312 25.453125 4.5625 C 24.140625 5.175781 22.703125 5.59375 21.140625 5.8125 C 19.585938 6.039062 17.984375 6.132812 16.328125 6.09375 C 14.671875 6.0625 13.019531 5.890625 11.375 5.578125 C 9.738281 5.273438 8.203125 4.882812 6.765625 4.40625 C 5.773438 4.101562 5.132812 3.554688 4.84375 2.765625 C 4.550781 1.984375 4.539062 1.234375 4.8125 0.515625 C 5.09375 -0.203125 5.59375 -0.773438 6.3125 -1.203125 C 7.03125 -1.628906 7.898438 -1.640625 8.921875 -1.234375 C 10.566406 -0.617188 12.222656 -0.179688 13.890625 0.078125 C 15.566406 0.335938 17.125 0.394531 18.5625 0.25 C 20 0.113281 21.242188 -0.222656 22.296875 -0.765625 C 23.359375 -1.316406 24.113281 -2.085938 24.5625 -3.078125 C 24.9375 -3.960938 25.203125 -4.976562 25.359375 -6.125 C 25.515625 -7.269531 25.382812 -8.492188 24.96875 -9.796875 C 24.351562 -8.972656 23.632812 -8.234375 22.8125 -7.578125 C 22 -6.929688 21.113281 -6.378906 20.15625 -5.921875 C 19.195312 -5.460938 18.1875 -5.101562 17.125 -4.84375 C 16.0625 -4.59375 14.984375 -4.46875 13.890625 -4.46875 C 10.066406 -4.46875 7.15625 -5.234375 5.15625 -6.765625 C 3.15625 -8.304688 2.15625 -10.460938 2.15625 -13.234375 C 2.15625 -15.078125 2.539062 -16.816406 3.3125 -18.453125 C 4.082031 -20.097656 5.164062 -21.535156 6.5625 -22.765625 C 7.96875 -23.992188 9.644531 -24.96875 11.59375 -25.6875 C 13.539062 -26.40625 15.691406 -26.765625 18.046875 -26.765625 C 18.734375 -26.765625 19.46875 -26.738281 20.25 -26.6875 C 21.039062 -26.632812 21.8125 -26.554688 22.5625 -26.453125 C 23.3125 -26.359375 24.03125 -26.222656 24.71875 -26.046875 C 25.40625 -25.878906 26.003906 -25.660156 26.515625 -25.390625 C 27.503906 -24.910156 28.082031 -24.257812 28.25 -23.4375 C 28.425781 -22.613281 28.34375 -21.851562 28 -21.15625 C 27.65625 -20.457031 27.132812 -19.925781 26.4375 -19.5625 C 25.738281 -19.207031 25.007812 -19.234375 24.25 -19.640625 C 23.257812 -20.191406 22.285156 -20.5625 21.328125 -20.75 C 20.367188 -20.9375 19.394531 -21.03125 18.40625 -21.03125 C 17.144531 -21.03125 15.957031 -20.875 14.84375 -20.5625 C 13.726562 -20.257812 12.753906 -19.789062 11.921875 -19.15625 C 11.085938 -18.519531 10.429688 -17.734375 9.953125 -16.796875 C 9.472656 -15.859375 9.234375 -14.769531 9.234375 -13.53125 C 9.234375 -12.40625 9.710938 -11.566406 10.671875 -11.015625 C 11.628906 -10.472656 12.875 -10.203125 14.40625 -10.203125 C 15.394531 -10.203125 16.367188 -10.351562 17.328125 -10.65625 C 18.285156 -10.96875 19.15625 -11.367188 19.9375 -11.859375 C 20.726562 -12.359375 21.394531 -12.929688 21.9375 -13.578125 C 22.488281 -14.234375 22.851562 -14.90625 23.03125 -15.59375 C 23.226562 -16.375 23.644531 -16.976562 24.28125 -17.40625 C 24.914062 -17.832031 25.59375 -18.070312 26.3125 -18.125 C 27.03125 -18.175781 27.726562 -18.019531 28.40625 -17.65625 C 29.09375 -17.300781 29.585938 -16.734375 29.890625 -15.953125 C 30.785156 -13.765625 31.351562 -11.394531 31.59375 -8.84375 C 31.832031 -6.300781 31.609375 -3.863281 30.921875 -1.53125 Z M 30.921875 -1.53125 "/></g></g></g><g fill="#ff7821" fill-opacity="1"><g transform="translate(68.859082, 229.71731)"><g><path d="M 24.46875 -36 C 25.519531 -35.925781 26.273438 -35.519531 26.734375 -34.78125 C 27.203125 -34.050781 27.410156 -33.265625 27.359375 -32.421875 C 27.304688 -31.585938 27.015625 -30.828125 26.484375 -30.140625 C 25.953125 -29.460938 25.207031 -29.140625 24.25 -29.171875 C 22.988281 -29.242188 21.679688 -29.253906 20.328125 -29.203125 C 18.984375 -29.148438 17.703125 -29.0625 16.484375 -28.9375 C 15.273438 -28.820312 14.179688 -28.675781 13.203125 -28.5 C 12.234375 -28.332031 11.488281 -28.148438 10.96875 -27.953125 C 9.769531 -27.472656 9.171875 -26.890625 9.171875 -26.203125 C 9.171875 -25.554688 9.804688 -25.046875 11.078125 -24.671875 C 11.929688 -24.429688 12.882812 -24.113281 13.9375 -23.71875 C 15 -23.320312 16.09375 -22.898438 17.21875 -22.453125 C 18.351562 -22.015625 19.472656 -21.535156 20.578125 -21.015625 C 21.691406 -20.503906 22.726562 -19.992188 23.6875 -19.484375 C 26.007812 -18.253906 27.742188 -16.757812 28.890625 -15 C 30.035156 -13.238281 30.625 -11.476562 30.65625 -9.71875 C 30.695312 -7.957031 30.175781 -6.316406 29.09375 -4.796875 C 28.019531 -3.273438 26.425781 -2.117188 24.3125 -1.328125 C 23.082031 -0.890625 21.578125 -0.523438 19.796875 -0.234375 C 18.015625 0.0546875 16.15625 0.234375 14.21875 0.296875 C 12.289062 0.367188 10.394531 0.328125 8.53125 0.171875 C 6.675781 0.0234375 5.0625 -0.253906 3.6875 -0.671875 C 2.875 -0.910156 2.296875 -1.484375 1.953125 -2.390625 C 1.609375 -3.296875 1.519531 -4.203125 1.6875 -5.109375 C 1.863281 -6.015625 2.285156 -6.765625 2.953125 -7.359375 C 3.617188 -7.953125 4.53125 -8.0625 5.6875 -7.6875 C 6.539062 -7.414062 7.644531 -7.191406 9 -7.015625 C 10.351562 -6.847656 11.765625 -6.75 13.234375 -6.71875 C 14.703125 -6.6875 16.128906 -6.742188 17.515625 -6.890625 C 18.898438 -7.046875 20.050781 -7.332031 20.96875 -7.75 C 22.164062 -8.257812 22.769531 -9.023438 22.78125 -10.046875 C 22.800781 -11.078125 21.941406 -12.171875 20.203125 -13.328125 C 19.453125 -13.804688 18.582031 -14.300781 17.59375 -14.8125 C 16.601562 -15.332031 15.550781 -15.835938 14.4375 -16.328125 C 13.320312 -16.828125 12.203125 -17.304688 11.078125 -17.765625 C 9.953125 -18.234375 8.875 -18.632812 7.84375 -18.96875 C 5.6875 -19.726562 4.078125 -20.804688 3.015625 -22.203125 C 1.960938 -23.609375 1.4375 -25.078125 1.4375 -26.609375 C 1.4375 -28.148438 1.957031 -29.601562 3 -30.96875 C 4.039062 -32.34375 5.601562 -33.367188 7.6875 -34.046875 C 8.820312 -34.421875 10.054688 -34.742188 11.390625 -35.015625 C 12.722656 -35.296875 14.113281 -35.519531 15.5625 -35.6875 C 17.019531 -35.863281 18.5 -35.976562 20 -36.03125 C 21.5 -36.082031 22.988281 -36.070312 24.46875 -36 Z M 24.46875 -36 "/></g></g></g><g fill="#ff7821" fill-opacity="1"><g transform="translate(100.807345, 229.71731)"><g><path d="M 35.6875 -2.671875 C 35.6875 -1.640625 35.289062 -0.867188 34.5 -0.359375 C 33.71875 0.148438 32.847656 0.394531 31.890625 0.375 C 30.941406 0.363281 30.070312 0.101562 29.28125 -0.40625 C 28.5 -0.914062 28.109375 -1.6875 28.109375 -2.71875 C 28.109375 -5.144531 28.03125 -7.335938 27.875 -9.296875 C 27.71875 -11.265625 27.46875 -12.941406 27.125 -14.328125 C 26.78125 -15.710938 26.328125 -16.789062 25.765625 -17.5625 C 25.203125 -18.332031 24.507812 -18.71875 23.6875 -18.71875 C 22.90625 -18.71875 22.085938 -18.457031 21.234375 -17.9375 C 20.378906 -17.425781 19.523438 -16.742188 18.671875 -15.890625 C 17.816406 -15.035156 16.984375 -14.0625 16.171875 -12.96875 C 15.367188 -11.875 14.648438 -10.726562 14.015625 -9.53125 C 13.390625 -8.34375 12.863281 -7.15625 12.4375 -5.96875 C 12.007812 -4.789062 11.726562 -3.707031 11.59375 -2.71875 C 11.488281 -1.789062 11.082031 -1.070312 10.375 -0.5625 C 9.675781 -0.0507812 8.914062 0.234375 8.09375 0.296875 C 7.28125 0.367188 6.519531 0.203125 5.8125 -0.203125 C 5.113281 -0.617188 4.679688 -1.285156 4.515625 -2.203125 C 4.273438 -3.535156 4.0625 -5.132812 3.875 -7 C 3.6875 -8.863281 3.519531 -10.851562 3.375 -12.96875 C 3.238281 -15.09375 3.117188 -17.289062 3.015625 -19.5625 C 2.921875 -21.832031 2.847656 -24.046875 2.796875 -26.203125 C 2.742188 -28.359375 2.71875 -30.375 2.71875 -32.25 C 2.71875 -34.164062 2.734375 -35.828125 2.765625 -37.234375 C 2.804688 -38.148438 3.203125 -38.832031 3.953125 -39.28125 C 4.703125 -39.726562 5.519531 -39.941406 6.40625 -39.921875 C 7.300781 -39.898438 8.101562 -39.660156 8.8125 -39.203125 C 9.53125 -38.742188 9.875 -38.066406 9.84375 -37.171875 C 9.78125 -35.703125 9.726562 -33.96875 9.6875 -31.96875 C 9.65625 -29.96875 9.644531 -27.914062 9.65625 -25.8125 C 9.675781 -23.71875 9.710938 -21.6875 9.765625 -19.71875 C 9.816406 -17.75 9.894531 -16.066406 10 -14.671875 C 12.351562 -18.597656 14.726562 -21.59375 17.125 -23.65625 C 19.519531 -25.726562 22.1875 -26.765625 25.125 -26.765625 C 27.144531 -26.765625 28.828125 -26.234375 30.171875 -25.171875 C 31.523438 -24.117188 32.613281 -22.566406 33.4375 -20.515625 C 34.257812 -18.460938 34.835938 -15.941406 35.171875 -12.953125 C 35.515625 -9.960938 35.6875 -6.535156 35.6875 -2.671875 Z M 35.6875 -2.671875 "/></g></g></g><g clip-path="url(#id1)"><path fill="#ff7821" d="M 165.097656 188.429688 C 152.695312 188.429688 142.605469 198.523438 142.605469 210.925781 C 142.605469 223.328125 152.695312 233.417969 165.097656 233.417969 C 177.5 233.417969 187.589844 223.328125 187.589844 210.925781 C 187.589844 198.519531 177.5 188.429688 165.097656 188.429688 Z M 143.742188 210.925781 C 143.742188 199.148438 153.320312 189.566406 165.097656 189.566406 C 165.203125 189.566406 165.308594 189.574219 165.410156 189.574219 C 165.414062 189.679688 165.417969 189.785156 165.417969 189.886719 C 165.417969 201.664062 155.835938 211.246094 144.0625 211.246094 C 143.957031 211.246094 143.855469 211.238281 143.75 211.238281 C 143.746094 211.132812 143.742188 211.03125 143.742188 210.925781 Z M 143.796875 212.375 C 143.886719 212.378906 143.972656 212.382812 144.0625 212.382812 C 156.464844 212.382812 166.554688 202.292969 166.554688 189.886719 C 166.554688 189.800781 166.550781 189.710938 166.550781 189.621094 C 177.171875 190.339844 185.683594 198.851562 186.398438 209.472656 C 186.3125 209.472656 186.222656 209.46875 186.136719 209.46875 C 173.730469 209.46875 163.640625 219.558594 163.640625 231.960938 C 163.640625 232.050781 163.644531 232.136719 163.648438 232.226562 C 153.027344 231.507812 144.511719 222.996094 143.796875 212.375 Z M 165.097656 232.28125 C 164.992188 232.28125 164.890625 232.273438 164.785156 232.273438 C 164.785156 232.167969 164.777344 232.066406 164.777344 231.960938 C 164.777344 220.1875 174.359375 210.605469 186.132812 210.605469 C 186.238281 210.605469 186.34375 210.609375 186.445312 210.613281 C 186.449219 210.714844 186.453125 210.820312 186.453125 210.925781 C 186.453125 222.699219 176.875 232.28125 165.097656 232.28125 Z M 165.097656 232.28125 " fill-opacity="1" fill-rule="nonzero"/></g><g fill="#ff7821" fill-opacity="1"><g transform="translate(189.45509, 225.893246)"><g><path d="M 12.921875 -37.75 C 12.378906 -35.832031 11.910156 -34.007812 11.515625 -32.28125 C 11.117188 -30.550781 10.851562 -28.847656 10.71875 -27.171875 C 10.6875 -26.597656 10.410156 -26.171875 9.890625 -25.890625 C 9.378906 -25.617188 8.820312 -25.5 8.21875 -25.53125 C 7.625 -25.570312 7.078125 -25.742188 6.578125 -26.046875 C 6.085938 -26.359375 5.828125 -26.804688 5.796875 -27.390625 C 5.691406 -29.023438 5.71875 -30.78125 5.875 -32.65625 C 6.03125 -34.539062 6.226562 -36.269531 6.46875 -37.84375 C 6.5625 -38.632812 6.992188 -39.195312 7.765625 -39.53125 C 8.535156 -39.875 9.332031 -40.019531 10.15625 -39.96875 C 10.976562 -39.914062 11.6875 -39.691406 12.28125 -39.296875 C 12.875 -38.910156 13.085938 -38.394531 12.921875 -37.75 Z M 12.921875 -37.75 "/></g></g></g><g fill="#ff7821" fill-opacity="1"><g transform="translate(207.916365, 225.893246)"><g><path d="M 25.890625 -19.390625 C 25.242188 -19.242188 24.429688 -19.117188 23.453125 -19.015625 C 22.484375 -18.921875 21.347656 -18.820312 20.046875 -18.71875 C 20.085938 -17.175781 20.148438 -15.660156 20.234375 -14.171875 C 20.316406 -12.691406 20.429688 -11.265625 20.578125 -9.890625 C 20.734375 -8.523438 20.929688 -7.257812 21.171875 -6.09375 C 21.410156 -4.9375 21.6875 -3.914062 22 -3.03125 C 22.34375 -2.070312 22.226562 -1.273438 21.65625 -0.640625 C 21.09375 -0.00390625 20.375 0.421875 19.5 0.640625 C 18.632812 0.859375 17.753906 0.835938 16.859375 0.578125 C 15.972656 0.328125 15.359375 -0.238281 15.015625 -1.125 C 14.679688 -2.019531 14.394531 -3.097656 14.15625 -4.359375 C 13.914062 -5.617188 13.703125 -7.007812 13.515625 -8.53125 C 13.328125 -10.0625 13.179688 -11.660156 13.078125 -13.328125 C 12.972656 -15.003906 12.90625 -16.679688 12.875 -18.359375 C 8.769531 -18.222656 5.421875 -18.222656 2.828125 -18.359375 C 1.898438 -18.429688 1.210938 -18.816406 0.765625 -19.515625 C 0.328125 -20.210938 0.109375 -20.957031 0.109375 -21.75 C 0.109375 -22.5625 0.3125 -23.289062 0.71875 -23.9375 C 1.125 -24.59375 1.738281 -24.90625 2.5625 -24.875 C 4.070312 -24.800781 5.65625 -24.769531 7.3125 -24.78125 C 8.96875 -24.800781 10.820312 -24.847656 12.875 -24.921875 C 12.9375 -26.148438 12.992188 -27.25 13.046875 -28.21875 C 13.097656 -29.195312 13.175781 -30.0625 13.28125 -30.8125 C 13.382812 -31.738281 13.851562 -32.414062 14.6875 -32.84375 C 15.53125 -33.269531 16.40625 -33.445312 17.3125 -33.375 C 18.21875 -33.3125 19.019531 -33.015625 19.71875 -32.484375 C 20.414062 -31.953125 20.695312 -31.226562 20.5625 -30.3125 C 20.457031 -29.65625 20.367188 -28.914062 20.296875 -28.09375 C 20.234375 -27.28125 20.1875 -26.359375 20.15625 -25.328125 C 22 -25.429688 23.585938 -25.585938 24.921875 -25.796875 C 25.773438 -25.898438 26.457031 -25.660156 26.96875 -25.078125 C 27.488281 -24.492188 27.816406 -23.804688 27.953125 -23.015625 C 28.085938 -22.234375 27.988281 -21.472656 27.65625 -20.734375 C 27.332031 -20.003906 26.742188 -19.554688 25.890625 -19.390625 Z M 25.890625 -19.390625 "/></g></g></g></svg>